<mxfile host="app.diagrams.net" agent="Mozilla/5.0 (Windows NT 10.0; Win64; x64) AppleWebKit/537.36 (KHTML, like Gecko) Chrome/137.0.0.0 Safari/537.36" version="27.1.1">
  <diagram name="Page-1" id="UweYcrMh825qg_DqVGFl">
    <mxGraphModel dx="2946" dy="1111" grid="1" gridSize="10" guides="1" tooltips="1" connect="1" arrows="1" fold="1" page="1" pageScale="1" pageWidth="850" pageHeight="1100" math="0" shadow="0">
      <root>
        <mxCell id="0" />
        <mxCell id="1" parent="0" />
        <mxCell id="oUSA92epYcbs7m-f7EX7-7" value="" style="rounded=0;whiteSpace=wrap;html=1;" vertex="1" parent="1">
          <mxGeometry x="60" y="150" width="120" height="430" as="geometry" />
        </mxCell>
        <mxCell id="oUSA92epYcbs7m-f7EX7-6" value="" style="shape=image;imageAspect=0;aspect=fixed;verticalLabelPosition=bottom;verticalAlign=top;image=data:image/png,iVBORw0KGgoAAAANSUhEUgAAAMgAAADICAYAAACtWK6eAAAABHNCSVQICAgIfAhkiAAAAAlwSFlzAAALEwAACxMBAJqcGAAADx5JREFUeJzt3XmUXvMdx/F3JskQSQhBbKmElGgsEftSQmNrxSHiWKqqlFoqtHTjlDrt4RzVUofSVmvn2Kk49rUcqpVaEkItIRVkYdIMIpKZ/vF9ppk8M/PM3X7LfZ7P65zfme25936fufd773PvbwMRERERERERERERERERERERERERERERERERkTrRJ3QAKa0H7AlsD4yu/DwYWClkULKCdmAxsAh4F3gVeAZ4DPg4YFx1ayXgWOAp7J+vUs7yBXAvMAloQnLrC5wMzCH8zlUptrwKTEYy2wKYRvgdqeK23A+sj6RyNPAp4Xeeip8yD5iAJHIW4XeYiv+yBDgcqeknhN9RKuHKMuwGXrpxKOF3kEr4shjYjojEUA8yCrshHxw6EInC28DWwMLQgYA9Sg3tdmDT0EFINFYHVsPqTBreIYS/rKvEV5YBY4lAyI9YfYCXgM09be894GbgfU/bq0dN2P46BFjZ8bbuAA52vI2o7Y2/M9LdwCp+3lZD2AR4B7f7rA0Y4en9ROkG/CTHB8AgT++pkYzH/b77ua83E5u+2FMKHwlyuaf31IhcX0We9/dWuheqVeU2wKqetvWhp+00Itf3c2OBNRxvo6aQCSLSmyYCP80KlSCq95Ckgh4roRJkWKDtSvkEPVZCJYieKklSvu5VuxUqQfoH2q6UT3PIjTdC3+AY2pvVq7o/0TVCgmwdOoA6tQoN8LClERJkP2Dn0EHUoTOBgaGDcK0REqQJmAocAfQLHEs9WB24AOseXfdctObtD0wEvg6Mwdr2VyfiBoQ5+7SimvU8+mL7zueJpoWu+2wZ8BHwInAX8AjWNCV6BwKz8NPGSkWlo7wA7ETkziP8P0qlccsXwHFE6meE/wepqLRR8IiNRdyDjAOeo2t9wzTgVqwnX3vV334EbFnAtqX+PQRcW/W7JmBj7MHLqKq/LcQeP0dzrzmVrlk8pZdl7sf/2UWlnOVSetYPuKibZX5TYxmvhmFPFDoHd16C5ZQgKklLrQTpcFvVMvMoqAoj7+O6XasC+RQ4P+c6e/Mm8CDwOvbYVuLVDAwHvopV1roaJORsVhzgYU2siuFlR9tL7AxWzNynEy6X5QryErBPgbGLX6OAG3FzBQGYW7XcAUUEnfcyVD2z06Kc6+vJVcC2wAOO1i/uvYHdVB+JDVZdtP9W/TygiJXm/YjlY1yt67EZpto9bEvcuwGrs7jZ8XYKOTZjb4v1JnA8So56cwvwh9BBJJHlCjIY2AvYENil6m8jgNOxz4OPYNOn5XEO8FnOdUiczga+Tb4RGgdgk+9sDAyp+tv+2OxVH2ETiM7KsZ3EppB8PKulwGV0/w9IcpPeQuDeZOLcLWS/ST8KmJ9g+Xasbu46HHff/WXCYKrLg3StZU+SIPe5fDMShZPIliBTEizXXXkOR2MKb4tlYZag2oFTqtaXJEE0ImJ2u1GOcW33JX2CbAR8nmC5nsq5aQJMepN+AvmeCpyYYZnPc2yvUfUBLgaewCrJ1gkbTq8WZ1jmGPJ99P4eKY7lpAkyLlss/7cZBT2Xlh41AX8ETq38PBD3UxSEkPdYHEaKqaeTJkgRUwdo+gF3+mE3od/t9Lv78fTkxrMijqPEvVl9dp2MYT7EetSMVbodWPX73waIpSwSH4saxKDcBgB30rWN2ovAw/7DqT9KkPIajPXF2a2bv+nqURAlSDmtjtUT7dDN3+YAN/kNp34pQcpnLawb6lY9/P1SrDGgFEAJUi7rY/cWo3v4+yfAFf7CqX9KkPIYiTUAHVnjNVcDH3uJpkHE3txdzKbAk9ROjjZsAAMpkBIkfltgybFBL6+7G+s/IwVSgsRtO+BxYO0Er9WjXQeUIPH6KnZDnmQa5OeAp9yG05iUIHHaC2tLlbSDTzQDpdUbJUh8DgDuIXmjvHeA292F09iUIHE5DDvYq4dTquV32OiW4oASJB7HYEPipKmbWghc6SYcASVILE7BDvS0++NK3A3WJyhBYvBT4BLS95dZin28EoeUIGH9iuyDfd8KzC4wFumG2mKFcxFwWo7l9WjXAyWIf01Yi9s88+k9CTxfTDhSixLEr77ANcA3c65HVw9PlCD+NGM9/SblXM+/sYpE8SBpghQxunojj9A+AKsA3K+AdXXMydeovB6LSROkJWMgHZbRdYKTRjEIO+OPL2BdC7BOUY1sYQHr+CjpC5M+5n0yYyAdnqEx+0kPwVrkji9ofVeg6SDyHoszsUk+E0maIJdi/Z2zuiDHsmW1FjYvRXcjj2TxOcnn66tnf8GmPcgq1bGYNEFmA9/Bam/TupDGu6lcDxtAemyB67wR+KDA9ZVVC3A42Qa+vgab79KZXYBnSTbM/FvAt3pYT5LpDy529SYcG4F1fc06PH9PZXOP78GX8WSbHwTs5PNoguXbsbHCvk+G4W/TPuZ9GtgRG35mZA/Lt2FnutfTBlMHNsHuOYYXvN4HgekFr7PsXgD2xEZrHwX07+Y1bdjHsZmV71PLWg/yXqXIcltgA7oNc7DuZtLffywFrgWmFR9OVD6sFCdUUViMjjnck/Qfz2I82Z6E7YPNzSIZqTVvfrtgA7q5So48XgkdQNkpQfKZgN0fOJ09NaMHgCNDB1F2SpDsdsemH4hx5qy7sMEfGr1SMTclSHaTSDe4gi83AYcAS0IHUg90k57dZcBXsLk60mgCti4+HAD+DBxPxkea0pUSJLvXsQHe0joIuKPgWMD6tZ9GY7f0LZw+Yvn3QwfrPB+b/lnJUTAliF/bA7sWvM6zgDMLXqdU6COWX6cXvL7T0NA/TilB/NkQOLigdbUBJwB/Kmh90gMliD+nYoM25LUUOBobplQcU4L4sSpwbAHrWYINcH1nAeuSBJQgfhxH/uYon2GVk/fnD0eSUoK41w+YknMdrcD+WC9F8UgJ4t5k4Es5lm8B9gX+Xkw4koYSxL08j3bnAXtjveckACWIW7thnamymIM1p3+1uHAkLSWIW1mblcwCvoYNfCEBqamJO18GJmZY7nXsyqPkiIASxJ3TSP//fRlLDk2MEwkliBtrYLXdafwTG5jB2Qgdkp4SxI0TSdcV92nsniPxoMrihxKkeM3AySle/zD2KLdRR7+PmhKkeEcA6yZ87VSshvxTd+FIHkqQ4v0g4etuwdpWfe4wFslJCVKsvYAtE7zuauxK04hzppSKEqRYSZqV/B44Bpt1SyKnBCnOGGws3Fp+jd3Aa3CFklCCFKe3ZiXnAD/2EYgUR22xijGM2nOfn4HmNi8lJUgxTqb7YUjbgZOwyTelhGJOkCIGOPBhAFZzXm0ZdjN+rd9wSiX6fRxzgqwfOoCEjgLWrPrdF9hj3Nv8h1MqRU9VV7iYE2RX7AwT8+PQPnStGFyMdbO91384pbN76ABilWSW23ZsoOeYTWTFeFuxiSWld0Ow9mdZZ7mta0kTZAbW+C9Wj7A81hZg57DhlMqFJDsGlCC9lJjHnn0Fi3E+MC5wLGUyAfvorATpQZoEaQfODRNmr0YDv8C610oy40n20UoJkrL8FRgRIFYpxgCsNcES0u33oAkS81OsahOB/YD7sBlcH0PTHMdubWAPrLfkJGBo2HDSK1OCgMU7keWjhXwAPA48iiXMG2HCkoo1sI9Qe1TKmKDRFKBsCVJtHWy088MqP/8HeBZ4plKmoQ5JrvQBNgV2AnasfB1DnTWALXuCVNsAq6SbXPl5CfAvLGmeA14EZhJ35WOshgNbYU/rdgJ2IP0Mv6VTbwlSrRnbkTt0+t1irH7lRWzM2xewe5kF3qOL0wDsyrBVpYytfF0jZFCh1HuCdGdlYJtK6WwB8Bo2suFrncos6m9QhX5YW7dNsGToXIZjH5+ExkyQngzFasK7qw1fgI12+G5VmVsp87DKwjYvkda2Gvb0aK1KGY5Nv9BRhmOjrkTfkjYGSpBkhlbK2BqvacMGfpuLJcuiTqW10/efYPMMLsVa/Xb+vg3oXyn9KqXj+5WBwZUyqOr7oSxPiJib5pSOEqQ4TViz9+qm71JiZXgk9wb2uPaT0IFIbsuw+7rnKcmTxNivIKcCl1S+7wOMxJ61b14pY7D2UN11d5Vw2rGHG9OxJ4bTK2Umy+ulxmIVvFE/Ko45QWawPDnA/ulvVco9nX7fF2ss2JEwHckzirjfX72Yw/IE6EiIGfR+xX8BuBw402l0OcV8AL2b8HXLsDPTTFbs4tqMXV06X202x65CeoyZ3ny6XhGmY/1gsnqngLicijlB8g7LuQR4qVI6GwScAFyAEiWJu7DJgFwczEsdrLNQMd+kuxq3thXrzXaTo/XXkwXA4bg700c/NnHMCeL67KJ5x3s3A2ua44quIDm4Prsscrz+euB6Uh9dQXJwfXZpdbz+euD6JKIrSA6uzy5KkN65ThBdQXJwfXbRR6ze6QoSOoAadAUJT1eQ0AHUMMTx+huyA1BKrgdZcL2PSyvJsD+LgM0cbX8Q8LcEMTR6WUiyORezWBl4KkEMGvanB4OAf2A1uQuxWu+O0pTy586/64/1qV7b31sprVWxffAEtg86H7htvfxc6zX9sAlPR/p7K9nEnCAAA6k9c5O414wdzA0p5nsQkeCUICI1KEFEalCCiNQQKkHaA21XyifosRIqQVw2oZb68lnIjYdKkNmBtivlE7RbbqgEUWclSerZkBsP1Sd7CPA+1txApCezgI0IeB8S6grSAlwVaNtSHhcT+CY95Kgea2PTDpRuWi7xYgY2F8mSkEGErAeZCxxJCTrNiHcLgUMJnByxmIw99g3dtFsljjIfm9JNOhmHzfgUeueohC0PAxsi3WrCJuN8iPRzaauUt7QCdwB7E6FYh95cD3jPw3auYcXxfGW5DbDBpV07DrjSw3YyibXDlK+bs5nAVE/bKpvRoQOIgVrzitSgBBGpQQkiUoMSRKQGJYhIDbEmiK8OVUE740RO+4B4E6SV5HMU5vGyh22U1Wzczw8C2geZnYvbGty3ibceKBaX4XYfTPP3VurPQKw5vIsdswzYx99bKa2h2JXcxT5YDGzv763Up3WBpyl2x7QAB/t8EyW3MTaneZH74ENggs83kVWsbbE66wN8A9gfGA70zbCOduzz9DPAddjsrZJcX+AgYF/spJV1H3yMjeh+PX7ub0RERERERERERERERERERERERERERERERKTB/A83Gk1PemPz1AAAAABJRU5ErkJggg==;" vertex="1" parent="1">
          <mxGeometry x="95" y="180" width="50" height="50" as="geometry" />
        </mxCell>
      </root>
    </mxGraphModel>
  </diagram>
</mxfile>
